# xmcd
#
# Track frame offsets:
#	150
#	15795
#	31580
#	52239
#	73460
#	96958
#	113342
#
# Disc length: 1727 seconds
#
# Revision: 1
# Processed by: cddbd v1.5.2PL0 Copyright (c) Steve Scherf et al.
# Submitted via: EasyCDDAExtractor 15.3.0.1
#
DISCID=5006bd07
DTITLE=Ricky Martin - Musica, Alma, Sexo (Deluxe Edition) - CD 2
DYEAR=2011
DGENRE=Latin
TTITLE0=Too Late Now
TTITLE1=Liar
TTITLE2=Soñador
TTITLE3=Lo Mejor De Mi Vida Eres Tu (Spanish Jump Smokers Dance Version)
TTITLE4=The Best Thing About Me Is You (Jump Smokers Dance Version)
TTITLE5=Lo Mejor De Mi Vida Eres Tu (Solo Version)
TTITLE6=The Best Thing About Me Is You (Solo Version)
EXTD=
EXTT0=
EXTT1=
EXTT2=
EXTT3=
EXTT4=
EXTT5=
EXTT6=
PLAYORDER=
